<svg width="61" height="69" viewBox="0 0 61 69" fill="none" xmlns="http://www.w3.org/2000/svg">
<path d="M29 42L19 57" stroke="#69B3A2" stroke-width="3"/>
<path d="M50 13L40 27" stroke="#0CF0E9" stroke-width="3"/>
<path d="M28 29L14 19" stroke="#D157D7" stroke-width="3"/>
<path d="M16.6432 68.6853C20.6115 67.5018 22.8689 63.3251 21.6852 59.3565C20.5015 55.3885 16.3251 53.1311 12.3568 54.3148C8.38855 55.4985 6.13117 59.675 7.31477 63.643C8.49844 67.6116 12.6749 69.8688 16.6432 68.6853Z" fill="#69B3A2"/>
<path d="M9.64317 21.6852C13.6115 20.5015 15.8689 16.3251 14.6852 12.3568C13.5015 8.38855 9.32507 6.13117 5.35681 7.31477C1.38853 8.49844 -0.868858 12.6749 0.314793 16.6432C1.49844 20.6115 5.67491 22.8689 9.64317 21.6852Z" fill="#D157D7"/>
<path d="M37.5005 44.5593C43.0561 42.9022 46.2164 37.0551 44.5593 31.4995C42.9022 25.9439 37.0551 22.7836 31.4995 24.4407C25.9439 26.0978 22.7836 31.9448 24.4407 37.5005C26.0978 43.0561 31.9449 46.2164 37.5005 44.5593Z" fill="#4682B4"/>
<path d="M55.6431 14.6852C59.6116 13.5015 61.8687 9.32507 60.6853 5.35681C59.5012 1.38853 55.325 -0.868858 51.3568 0.314793C47.3885 1.49845 45.1312 5.67491 46.3148 9.64317C47.4984 13.6115 51.6749 15.8689 55.6431 14.6852Z" fill="#0CF0E9"/>
</svg>
